# xmcd CD database file
#
# Track frame offsets:
#	150
#	20487
#	36532
#	55057
#	75690
#	96385
#	114937
#	135650
#	151837
#	173680
#
# Disc length: 2593 seconds
#
# Revision: 1
# Processed by: cddbd v1.4PL0 Copyright (c) Steve Scherf et al.
# Submitted via: CDex 1.50
#
DISCID=780a1f0a
DTITLE=Kelvin Khoa - Em Di
DYEAR=1992
DGENRE=New Age
TTITLE0=Em Di
TTITLE1=Tieng Dan Khuya
TTITLE2=Buon Vuon Mau Ao
TTITLE3=Joy of Love
TTITLE4=Toi Tinh Buon
TTITLE5=Bai Khong Ten So 5
TTITLE6=Quen Di Tinh Yeu Cu
TTITLE7=Bai Khong Ten So 4
TTITLE8=And I Love Her
TTITLE9=Ao Lua Ha Dong
EXTD=YEAR: 1992
EXTT0=
EXTT1=
EXTT2=
EXTT3=
EXTT4=
EXTT5=
EXTT6=
EXTT7=
EXTT8=
EXTT9=
PLAYORDER=
